<svg xmlns="http://www.w3.org/2000/svg" xmlns:xlink="http://www.w3.org/1999/xlink" width="300" height="300" viewBox="-2541763.8025657744 126839.20152115694 4983644.399711933 3224903.0460602236" preserveAspectRatio="xMinYMin meet"><g transform="matrix(1,0,0,-1,0,3478581.4491025372)"><path fill-rule="evenodd" fill="#66cc99" stroke="#555555" stroke-width="33224.29599807956" opacity="0.6" d="M -1962161.3702512002,3167162.8253698274 L -1759244.7090589108,3111553.2812018204 L -1545449.6330413173,3059930.61815036 L -1474314.709586353,3044312.18363005 L -1252770.483023552,3000572.8999905614 L -1037133.5987980213,2965028.692290655 L -816816.1897191196,2935763.8813647977 L -595559.4239206862,2913440.4502210645 L -344366.35286531027,2896648.6669438877 L -91028.37163248812,2888887.159950868 L 62301.831000003694,2888497.2179712243 L 62147.38396207218,2930667.6015315508 L 87068.35232383838,2931459.6548542823 L 101006.71912840151,2871364.440293248 L 124418.75843760684,2853125.822644014 L 176573.7886802904,2847470.3865310536 L 253257.45300077528,2832260.9967512945 L 327245.01461478753,2801104.8235037685 L 387207.16933892755,2818455.9851389676 L 481130.7062799805,2795471.349114236 L 505602.3432948148,2798248.833605114 L 570219.6059053084,2834425.8915207386 L 643838.0438532329,2800561.163444683 L 721422.9436960664,2765099.265672206 L 786428.3534551765,2734908.200943919 L 849302.778833168,2706395.2936531566 L 860092.710574457,2678344.351369029 L 879368.0740272958,2669671.988981 L 876010.4580188135,2658204.4898509462 L 896944.5076263376,2657313.7515170607 L 910403.92852568,2670543.967616187 L 917524.6569041987,2644978.2032167 L 935169.3937639846,2629496.750178407 L 956259.81054559,2632229.652571161 L 969296.6790022642,2620265.288222991 L 962383.1020899815,2599443.0229957663 L 1050039.1545406047,2558800.1457565483 L 1081039.2313449422,2461205.521876811 L 1110846.1384718216,2367631.6791842305 L 1096971.8304474012,2298920.559685891 L 1067669.4486708764,2232704.721197529 L 1055138.5526097198,2191473.1710527563 L 1054921.380452739,2179666.832754751 L 1066243.8202757041,2165081.0571867456 L 1096454.2337480504,2151470.159307652 L 1116976.7728265573,2154390.9936997006 L 1202698.370201888,2227637.604647981 L 1283219.6762079608,2258463.6517575826 L 1378747.5487217123,2331556.786252367 L 1378270.4600091216,2342983.0693932096 L 1365027.8154898717,2375203.659404089 L 1348313.8914044409,2394469.690380144 L 1380882.1751514468,2418384.9849974783 L 1458361.9658945145,2433495.263042491 L 1530691.564299216,2447900.086523778 L 1547018.8471339704,2495654.839144193 L 1555014.839196786,2506192.406670005 L 1620136.097533703,2602283.2418724773 L 1650386.739111339,2630036.6236841725 L 1766667.4044223127,2658096.699436524 L 1907290.4233484124,2693806.7474333197 L 1907880.8394221975,2722359.383749529 L 1930701.9169211322,2734224.051560079 L 1958310.9896101505,2759523.88585523 L 1971578.6620630845,2815597.3125913846 L 1971087.0259121298,2905037.669262234 L 2004194.3463309093,3001291.0156156505 L 2036569.8668486348,2980463.22869681 L 2080138.4783117266,3012990.2096694787 L 2121757.429716026,2992276.1089703864 L 2165909.473363354,2847694.8471634067 L 2233376.9260382843,2802803.511785382 L 2257301.174934605,2772082.0021861847 L 2192394.3260581214,2695523.335982741 L 2124825.7963073896,2635295.45341839 L 2052517.6578377364,2580334.61500408 L 2029034.2831178883,2505068.9979390698 L 2022378.4627556414,2477212.1007709373 L 2037105.1843521802,2419790.0015011425 L 2078887.9678691812,2369749.2073171968 L 2112631.7828546544,2376205.6610815427 L 2093330.025803339,2413210.391770266 L 2123791.037816387,2395937.6151934555 L 2126091.380942096,2363380.487942149 L 2077089.9971450253,2330963.835979128 L 2038092.694692345,2322664.0927712065 L 1983741.5174993041,2288132.639554308 L 1950127.8926859817,2273708.488683062 L 1904586.6682338591,2256558.6269738334 L 1844751.712074671,2208616.235554483 L 1958625.6831873362,2258484.8786152913 L 1987841.4065113019,2244087.6455218834 L 1882352.8591841282,2182990.8124207407 L 1830441.951203596,2170329.541240083 L 1829703.5251288333,2184281.2444681074 L 1811931.579527464,2148217.114969529 L 1837196.963055805,2148863.170308624 L 1837833.7294704786,2066333.4304693395 L 1796567.9937833431,1968342.4989405312 L 1784021.9189797265,1995027.1579641823 L 1764416.1599073943,1996620.1197672065 L 1731035.0497745958,2017953.1953704408 L 1761379.675130223,1962831.4596141882 L 1786533.575101855,1947992.6646341875 L 1797061.3130711655,1906942.1470349052 L 1779354.420568494,1858387.127720829 L 1750284.43463452,1760475.0243196632 L 1741530.2650569265,1763154.064149323 L 1751942.1477049086,1843394.0526727424 L 1699610.6097384575,1876005.4039165592 L 1670566.969880367,1965051.51948696 L 1664266.0932237564,1914229.2142569493 L 1696871.0579375569,1848401.9197680748 L 1637164.2267420487,1854017.6568979463 L 1703040.2767956483,1830764.7531173527 L 1728686.2917862823,1727190.0226618217 L 1755063.0810150255,1724871.4691155695 L 1772170.3089715955,1688894.5336586484 L 1808075.7985763396,1582021.41261692 L 1769241.9486672217,1488825.1085283768 L 1683717.248307338,1437534.7326451698 L 1637251.946718713,1361689.2510012384 L 1593517.9346840007,1346157.1996983471 L 1555044.6688354504,1297399.0596953235 L 1548651.4457776158,1258186.9467627222 L 1460300.1243782714,1169447.94116383 L 1416736.2094655093,1108546.2940833373 L 1383121.580909412,1036394.6967316999 L 1380716.1524889048,956056.0724054346 L 1409270.659806251,882427.270771329 L 1455957.891333312,793761.3684431688 L 1511352.5717110827,723370.2737727441 L 1519632.3413928142,676339.6980479431 L 1587067.7726526738,557918.4275585766 L 1596320.6540945584,484285.1506803474 L 1599091.106356917,441440.9527247731 L 1585131.817711944,371243.3150881501 L 1557273.068732894,352669.923578951 L 1505598.5205167118,357848.9566704863 L 1482304.0717384238,402869.1966373688 L 1440421.4338256172,421965.34587057057 L 1373743.2645116257,507595.179574272 L 1315862.3897397118,584432.3659530238 L 1295149.564552396,625115.616538556 L 1304973.2657337338,700550.5940726483 L 1269433.2645727424,757035.2212015291 L 1182191.947520575,838887.1769225844 L 1142712.2095336965,851001.9058105175 L 1052040.5670877856,789364.7580005802 L 1034198.6275139682,792904.9991114667 L 981975.8460512467,839201.543735869 L 919223.1097153258,860251.7170031212 L 812536.6878451281,836058.6007081899 L 726610.7662672211,841108.1219800207 L 654204.3599699873,827934.5104775291 L 615780.5874095608,807895.553545321 L 635107.3100234325,779651.18236329 L 636647.9365477177,734677.2791246114 L 658749.8373741424,714285.702006282 L 641280.627434412,698455.2725197416 L 604167.183316932,712329.369626012 L 569051.6180866455,689041.0963065786 L 498302.0498772403,688405.6650442906 L 423002.20518000715,743279.2724809416 L 339183.30657841597,725967.107344404 L 267992.70245443913,749294.8567086547 L 208077.0851944143,739962.3741399416 L 127052.8796093935,712579.9911674488 L 39116.38080350963,629687.1871526614 L -58426.04855337957,582112.0606397318 L -112754.21579502954,529870.0507188218 L -136217.0411491866,480537.89156293933 L -138314.40627155968,404571.66491704533 L -134041.5372329825,351734.7548686321 L -115341.17624992668,314156.2232093805 L -154850.63159003816,311418.62373271 L -226130.03794679188,336986.63489187777 L -303766.97955200117,373205.21269756835 L -330125.11744623876,425805.5157311295 L -349268.0748144659,503666.53065924626 L -405056.5147732113,568870.4082192845 L -436079.68648405006,635126.6719527817 L -481190.9024765398,713253.4791555197 L -546893.2686103391,761186.0225408179 L -625891.5346940664,764095.2339470979 L -693175.7185982937,681153.0498381488 L -771143.5534427983,720666.231175107 L -818250.0295020347,758329.2641545685 L -836675.2153927427,821234.600281925 L -862943.4457938503,881955.7668778842 L -914547.4786067732,936174.3532195768 L -959171.3061137742,976196.5776785893 L -989164.6558691459,1019177.2496851989 L -1151407.2073647554,1038725.4389425942 L -1157489.691983654,993192.8356927695 L -1232022.057667856,1003132.156629345 L -1418641.8462424949,1030071.1014760415 L -1617634.373482361,1143830.9284603316 L -1746355.227247649,1223775.5356632737 L -1733510.711218414,1243448.9680750293 L -1851945.2174555154,1255559.7968843202 L -1957421.539759286,1269943.0796050965 L -1960076.336980511,1328992.7311310677 L -2003982.173116091,1405059.0433463776 L -2042685.4809328986,1427999.850267002 L -2044935.220333874,1461514.3358942627 L -2093543.8983420841,1479183.849258852 L -2117963.763992349,1516447.946561818 L -2197295.5007621697,1548220.181859169 L -2215156.846128905,1571599.1666557556 L -2210045.6177955475,1633710.1118658276 L -2264555.470743325,1765087.2511918065 L -2293070.0583613804,1934969.856677971 L -2282938.4397534644,1959071.2280651412 L -2309552.695452179,2005298.919349266 L -2346993.6254543155,2114325.825090413 L -2331926.5869173603,2205216.3957821657 L -2357184.3803542214,2276900.6133313477 L -2312405.311721423,2360258.8256570143 L -2287101.355258211,2452887.919336046 L -2286854.103000409,2542461.506905325 L -2225758.2011047704,2633776.4541989625 L -2187021.6431482267,2727738.502891973 L -2148586.8550897487,2821594.1867986126 L -2118770.6498791627,2968036.47491679 L -2114070.014464406,3065498.1650588363 L -2119891.9057790814,3120906.077991771 L -2104844.802853358,3138757.0650296845 L -2011818.1651765152,3071597.1529123345 L -2002142.8625892093,2960222.4138481636 L -1976009.4867850689,2983112.5684023164 L -1962790.3501725395,3073454.0534645924 L -1962161.3702512002,3167162.8253698274 z" /></g></svg>